HIERARCHY
ROOT Hips
{
	OFFSET 0.000000 0.000000 0.000000
	CHANNELS 6 Xposition Yposition Zposition Xrotation Yrotation Zrotation
	JOINT LeftUpLeg_virtual
	{
		OFFSET 0.000000 0.000000 0.000000
		CHANNELS 3 Xrotation Yrotation Zrotation
		JOINT LeftUpLeg
		{
			OFFSET 10.205400 -3.823500 0.155100
			CHANNELS 3 Xrotation Yrotation Zrotation
			JOINT LeftLeg
			{
				OFFSET 0.708757 -12.982077 0.567790
				CHANNELS 3 Xrotation Yrotation Zrotation
				JOINT LeftFoot
				{
					OFFSET -0.708756 -10.717838 -2.184338
					CHANNELS 3 Xrotation Yrotation Zrotation
					JOINT LeftToeBase
					{
						OFFSET 0.108149 -7.191104 7.560241
						CHANNELS 3 Xrotation Yrotation Zrotation
						JOINT LeftToe_End
						{
							OFFSET 0.070230 0.081724 4.490308
							CHANNELS 3 Xrotation Yrotation Zrotation
							End Site
							{
								OFFSET 0 0 0
							}
						}
					}
				}
			}
		}
	}
	JOINT RightUpLeg_virtual
	{
		OFFSET 0.000000 0.000000 0.000000
		CHANNELS 3 Xrotation Yrotation Zrotation
		JOINT RightUpLeg
		{
			OFFSET -10.205400 -3.823500 0.005500
			CHANNELS 3 Xrotation Yrotation Zrotation
			JOINT RightLeg
			{
				OFFSET -0.708756 -12.982134 0.610632
				CHANNELS 3 Xrotation Yrotation Zrotation
				JOINT RightFoot
				{
					OFFSET 0.708754 -10.717769 -1.945823
					CHANNELS 3 Xrotation Yrotation Zrotation
					JOINT RightToeBase
					{
						OFFSET -0.108140 -7.191069 7.372968
						CHANNELS 3 Xrotation Yrotation Zrotation
						JOINT RightToe_End
						{
							OFFSET -0.070227 0.081735 4.479403
							CHANNELS 3 Xrotation Yrotation Zrotation
							End Site
							{
								OFFSET 0 0 0
							}
						}
					}
				}
			}
		}
	}
	JOINT Spine_virtual
	{
		OFFSET 0.000000 0.000000 0.000000
		CHANNELS 3 Xrotation Yrotation Zrotation
		JOINT Spine
		{
			OFFSET 0.000000 6.876099 0.125700
			CHANNELS 3 Xrotation Yrotation Zrotation
			JOINT Spine1
			{
				OFFSET 0.000000 5.730043 0.104720
				CHANNELS 3 Xrotation Yrotation Zrotation
				JOINT Spine1_split
				{
					OFFSET 0.000000 5.730043 0.104720
					CHANNELS 3 Xrotation Yrotation Zrotation
					JOINT Spine2
					{
						OFFSET 0.000000 5.730043 0.104720
						CHANNELS 3 Xrotation Yrotation Zrotation
						JOINT Neck_virtual
						{
							OFFSET 0.000000 0.000000 0.000000
							CHANNELS 3 Xrotation Yrotation Zrotation
							JOINT Neck
							{
								OFFSET 0.000000 10.314075 0.188496
								CHANNELS 3 Xrotation Yrotation Zrotation
								JOINT Head
								{
									OFFSET 0.000000 7.643700 -2.377400
									CHANNELS 3 Xrotation Yrotation Zrotation
									JOINT HeadTop_End
									{
										OFFSET 0.000000 43.788605 -13.619600
										CHANNELS 3 Xrotation Yrotation Zrotation
										End Site
										{
											OFFSET 0 0 0
										}
									}
								}
							}
						}
						JOINT LeftShoulder_virtual
						{
							OFFSET 0.000000 0.000000 0.000000
							CHANNELS 3 Xrotation Yrotation Zrotation
							JOINT LeftShoulder
							{
								OFFSET 2.196100 4.412489 0.087492
								CHANNELS 3 Xrotation Yrotation Zrotation
								JOINT LeftShoulder_split
								{
									OFFSET 2.196100 4.412489 0.087492
									CHANNELS 3 Xrotation Yrotation Zrotation
									JOINT LeftArm
									{
										OFFSET 8.771219 -2.981674 -0.026999
										CHANNELS 3 Xrotation Yrotation Zrotation
										JOINT LeftForeArm
										{
											OFFSET 8.512804 0.000000 -0.000000
											CHANNELS 3 Xrotation Yrotation Zrotation
											JOINT LeftHand
											{
												OFFSET 18.484802 0.000000 -0.000000
												CHANNELS 3 Xrotation Yrotation Zrotation
												End Site
												{
													OFFSET 0 0 0
												}
											}
										}
									}
								}
							}
						}
						JOINT RightShoulder_virtual
						{
							OFFSET 0.000000 0.000000 0.000000
							CHANNELS 3 Xrotation Yrotation Zrotation
							JOINT RightShoulder
							{
								OFFSET -2.196100 4.412496 0.070690
								CHANNELS 3 Xrotation Yrotation Zrotation
								JOINT RightShoulder_split
								{
									OFFSET -2.196100 4.412496 0.070690
									CHANNELS 3 Xrotation Yrotation Zrotation
									JOINT RightArm
									{
										OFFSET -8.771282 -2.981682 -0.094208
										CHANNELS 3 Xrotation Yrotation Zrotation
										JOINT RightForeArm
										{
											OFFSET -8.494598 0.000000 0.000000
											CHANNELS 3 Xrotation Yrotation Zrotation
											JOINT RightHand
											{
												OFFSET -18.483803 0.000000 0.000001
												CHANNELS 3 Xrotation Yrotation Zrotation
												End Site
												{
													OFFSET 0 0 0
												}
											}
										}
									}
								}
							}
						}
					}
				}
			}
		}
	}
}
MOTION
Frames: 5
Frame Time: 0.03333333
0.655331 31.660845 -1.190073 0.000000 0.000000 0.000000 3.113984 -9.782125 -0.896002 -37.577433 4.763905 7.843626 31.686907 1.187992 4.082539 -1.574320 -0.124129 -6.456446 2.246315 -0.664908 -1.294492 0.000000 0.000000 0.000000 2.820208 -10.139961 -0.866600 -1.601518 -12.952630 -14.073065 23.912395 -8.755553 1.926344 -26.194071 -8.434876 17.893960 -0.098636 -0.336972 0.251740 0.000000 0.000000 0.000000 3.643172 -8.872493 -1.302811 21.659413 4.516791 1.312125 1.883153 2.009092 -0.454495 0.471204 -0.291778 0.247055 0.000000 0.000000 0.000000 2.491502 2.051230 -0.164441 -5.456157 16.355986 1.426487 8.000435 48.312380 -21.637175 0.000000 0.000000 0.000000 2.768907 2.333572 -0.411445 2.143615 -34.986155 5.729023 0.268645 0.577091 -4.599852 -25.059351 -15.809065 -66.712787 -0.323977 -45.733707 -7.845816 0.000000 0.000000 0.000000 3.295250 2.112259 -0.365299 8.572379 21.306010 -10.288136 -1.055714 3.634685 0.420761 -42.672853 14.652458 82.111189 -0.687722 53.162620 2.885343 0.000000 0.000000 0.000000 
0.711663 31.676596 -0.962580 0.000000 0.000000 0.000000 3.178874 -9.027229 -1.003902 -37.629479 4.931257 7.405680 31.903506 0.869798 4.176808 -1.997849 -0.186501 -5.997474 2.207325 -0.683440 -1.255174 0.000000 0.000000 0.000000 2.864954 -9.457304 -0.972443 -0.638145 -12.951984 -14.145602 23.302012 -9.409941 1.960233 -26.219464 -8.726065 18.597832 -0.066464 -0.438331 0.344151 0.000000 0.000000 0.000000 3.762963 -8.144357 -1.399358 21.455209 4.583562 0.951661 1.828883 2.105692 -0.638552 0.471382 -0.274059 0.218781 0.000000 0.000000 0.000000 2.458464 2.145466 -0.378700 -5.500993 16.218245 1.741108 7.071176 47.960168 -20.729361 0.000000 0.000000 0.000000 2.772816 2.418196 -0.667548 2.003125 -35.533192 5.687253 0.045902 0.532074 -4.891633 -24.657538 -15.754045 -66.537148 -0.260880 -45.521623 -6.735283 0.000000 0.000000 0.000000 3.305078 2.249336 -0.603788 8.415605 20.437130 -10.014767 -0.810688 3.772055 0.381731 -42.982319 15.231515 83.058297 -0.695268 52.597883 2.471178 0.000000 0.000000 0.000000 
0.759671 31.686867 -0.737030 0.000000 0.000000 0.000000 3.265052 -8.376249 -1.059769 -37.677799 5.040517 6.995356 32.180764 0.624809 4.258112 -2.445041 -0.225293 -5.611489 2.173275 -0.700971 -1.220463 0.000000 0.000000 0.000000 2.927308 -8.894422 -1.022662 0.165798 -12.899887 -14.249459 22.817630 -9.961127 1.959430 -26.265043 -8.996869 19.292996 -0.068839 -0.521918 0.421358 0.000000 0.000000 0.000000 3.908041 -7.531393 -1.435713 21.249443 4.596877 0.559247 1.784481 2.183491 -0.816936 0.482616 -0.246926 0.210203 0.000000 0.000000 0.000000 2.437088 2.222920 -0.591400 -5.597769 15.971945 2.098011 5.864857 47.423892 -19.515478 0.000000 0.000000 0.000000 2.777013 2.486198 -0.916874 1.863254 -36.045408 5.655717 -0.139243 0.519778 -5.118599 -24.056087 -15.850712 -66.314368 -0.236986 -45.475078 -5.664120 0.000000 0.000000 0.000000 3.311697 2.367216 -0.830457 8.303573 19.816184 -9.814271 -0.649365 3.860341 0.394602 -43.198112 15.597685 83.866841 -0.778492 52.212056 2.205244 0.000000 0.000000 0.000000 
0.800161 31.690470 -0.521910 0.000000 0.000000 0.000000 3.377498 -7.822541 -1.075503 -37.745019 5.066266 6.608877 32.525914 0.438934 4.335149 -2.894669 -0.247657 -5.317892 2.156203 -0.716468 -1.195312 0.000000 0.000000 0.000000 3.016114 -8.430024 -1.030723 0.836455 -12.798877 -14.366219 22.418978 -10.419220 1.920243 -26.376780 -9.254507 19.946147 -0.081746 -0.582994 0.480085 0.000000 0.000000 0.000000 4.077894 -7.035265 -1.433968 21.048823 4.550050 0.143917 1.746768 2.239489 -0.985305 0.468772 -0.194320 0.215623 0.000000 0.000000 0.000000 2.416512 2.280549 -0.799790 -5.756943 15.643954 2.512050 4.498772 46.781499 -18.042382 0.000000 0.000000 0.000000 2.781066 2.535353 -1.150075 1.741841 -36.546618 5.675799 -0.285167 0.543044 -5.282521 -23.281311 -16.079720 -66.066419 -0.250424 -45.578009 -4.648231 0.000000 0.000000 0.000000 3.315678 2.462252 -1.037725 8.229059 19.437381 -9.681314 -0.551617 3.904656 0.418329 -43.282318 15.740419 84.502773 -0.901606 51.942694 2.051556 0.000000 0.000000 0.000000 
0.837299 31.689589 -0.314083 0.000000 0.000000 0.000000 3.525330 -7.363116 -1.065216 -37.838951 4.999001 6.244722 32.929565 0.307009 4.414709 -3.344442 -0.251047 -5.119447 2.172920 -0.728891 -1.186252 0.000000 0.000000 0.000000 3.141817 -8.051689 -1.010161 1.394213 -12.660632 -14.477267 22.085968 -10.812843 1.849879 -26.560606 -9.507078 20.509318 -0.054595 -0.617093 0.517868 0.000000 0.000000 0.000000 4.267451 -6.663023 -1.409051 20.864819 4.445699 -0.279968 1.716130 2.269282 -1.140117 0.449007 -0.118724 0.227253 0.000000 0.000000 0.000000 2.393259 2.317134 -0.999285 -5.981371 15.265177 3.003187 3.083595 46.112175 -16.385445 0.000000 0.000000 0.000000 2.785398 2.559638 -1.361417 1.646312 -37.061436 5.758400 -0.404078 0.659660 -5.402814 -22.393147 -16.410291 -65.829479 -0.297833 -45.770238 -3.689708 0.000000 0.000000 0.000000 3.317107 2.531228 -1.225867 8.186712 19.273832 -9.617344 -0.508565 3.920705 0.426551 -43.242109 15.659336 84.944993 -1.039622 51.774821 1.975188 0.000000 0.000000 0.000000 
